<svg width="29" height="29" viewBox="0 0 29 29" fill="none" xmlns="http://www.w3.org/2000/svg">
<path d="M19.8828 9.00813C20.1382 8.76505 20.4779 8.63067 20.8304 8.63334C21.183 8.63601 21.5206 8.77552 21.7723 9.02243C22.0239 9.26934 22.1697 9.60434 22.1791 9.95675C22.1884 10.3092 22.0604 10.6514 21.8222 10.9113L14.5903 19.9556C14.466 20.0896 14.3159 20.1971 14.149 20.2717C13.9822 20.3463 13.802 20.3865 13.6193 20.3899C13.4366 20.3932 13.255 20.3597 13.0855 20.2914C12.916 20.223 12.7621 20.1211 12.6328 19.9919L7.83696 15.196C7.7034 15.0716 7.59628 14.9215 7.52198 14.7547C7.44768 14.588 7.40773 14.408 7.40451 14.2255C7.40129 14.0429 7.43486 13.8616 7.50323 13.6924C7.5716 13.5231 7.67337 13.3693 7.80245 13.2402C7.93153 13.1112 8.08529 13.0094 8.25456 12.941C8.42383 12.8727 8.60513 12.8391 8.78765 12.8423C8.97018 12.8455 9.15018 12.8855 9.31693 12.9598C9.48368 13.0341 9.63376 13.1412 9.75821 13.2748L13.5536 17.0683L19.8484 9.04801C19.8597 9.03405 19.8718 9.02074 19.8846 9.00813H19.8828Z" fill="currentColor"/>
</svg>
